<svg xmlns="http://www.w3.org/2000/svg" viewBox="0 0 213.23 78.35">
    <defs>
        <style>.cls-1{fill:#fff;}.cls-2,.cls-3{fill:#3828cc;}.cls-3{stroke:#3828cc;stroke-miterlimit:10;}</style>
    </defs>
    <g id="Layer_2" data-name="Layer 2">
        <circle class="cls-1" cx="41.15" cy="39.18" r="20.29"/>
        <path class="cls-2" d="M40.62,9.18a30,30,0,1,0,30,30A30,30,0,0,0,40.62,9.18ZM49,48.83a2,2,0,1,1,2-2A2,2,0,0,1,49,48.83Zm4.62-9.63c0,.33,0,.65,0,1h0c0,.27,0,.53-.09.81a2.93,2.93,0,0,1-.05.29,3.12,3.12,0,0,1-2.8,2.47h0a3.68,3.68,0,0,1-1.79-.3s0,0-.07,0A3.47,3.47,0,0,1,46.87,41v0a6.5,6.5,0,0,0,.24-2v-.07c0-.07,0-.15,0-.24a1.85,1.85,0,0,0,0-.23.3.3,0,0,0,0-.16A2,2,0,0,0,47,37.8a.94.94,0,0,0,0-.16,2.53,2.53,0,0,0-.14-.49c-.06-.19-.13-.37-.21-.56a3.89,3.89,0,0,0-.25-.5.07.07,0,0,0,0-.06,4.64,4.64,0,0,0-.25-.42,3.89,3.89,0,0,0-.28-.39,2.85,2.85,0,0,0-.27-.32.58.58,0,0,0-.12-.14c-.12-.13-.25-.25-.38-.37a4.11,4.11,0,0,0-.45-.38,4,4,0,0,0-.89-.56.71.71,0,0,0-.21-.11,4.43,4.43,0,0,0-.45-.2,3.69,3.69,0,0,0-.56-.19,5.22,5.22,0,0,0-1.19-.23l-.16,0a4.74,4.74,0,0,0-1.13,0h0a5.52,5.52,0,0,0-1.14.25,4,4,0,0,0-.58.2s0,0,0,0a5.06,5.06,0,0,0-1.1.59c-.18.12-.34.25-.5.38a4.4,4.4,0,0,0-.39.35c-.14.13-.27.27-.39.4a6.39,6.39,0,0,0-1.7,4.17,1.27,1.27,0,0,0,0,.2c0,.16,0,.31,0,.47a1.33,1.33,0,0,0,0,.28,1.23,1.23,0,0,0,0,.19,1.62,1.62,0,0,0,0,.19.4.4,0,0,0,0,.15,3.59,3.59,0,0,0,.12.47.57.57,0,0,0,0,.14c.06.18.12.36.2.54a3.11,3.11,0,0,0,.22.45,3.48,3.48,0,0,0,.38.64,3.59,3.59,0,0,0,.37.5,4,4,0,0,0,.39.43c.06.07.12.12.18.18a4.53,4.53,0,0,0,.81.65.05.05,0,0,0,0,0,3.09,3.09,0,0,0,.42.25,1.74,1.74,0,0,0,.18.11l.44.21h.06a2.42,2.42,0,0,0,.51.19l.09,0,.41.1a1.55,1.55,0,0,0,.31.07,5.21,5.21,0,0,0,.57.08,8,8,0,0,0,.85,0h.33l.21,0a3,3,0,0,0,.52-.09,2.25,2.25,0,0,0,.51-.13,3.1,3.1,0,0,0,.52-.15,3.39,3.39,0,0,1,2.51,1.46.94.94,0,0,1,.1.14,3.67,3.67,0,0,1,.5,1.86v.05a3.15,3.15,0,0,1-2,2.95h0c-.23.07-.46.12-.7.18a14.83,14.83,0,0,1-1.51.22h0c-.37,0-.74,0-1.11,0A12.59,12.59,0,0,1,38,51.91l-.64-.14-.47-.14-.66-.21-.1,0c-.26-.1-.51-.19-.76-.31a13.1,13.1,0,0,1-7.42-9c0-.11-.05-.22-.07-.31a12,12,0,0,1-.19-1.26c0-.18,0-.35,0-.54s0-.53,0-.8,0-.83.06-1.23.1-.84.17-1.23c0-.19.08-.38.13-.57s.1-.39.16-.6.11-.38.18-.57l.12-.34.18-.47A13,13,0,0,1,31.43,30a12.37,12.37,0,0,1,1.33-1.17,5.37,5.37,0,0,1,.59-.42,4.32,4.32,0,0,1,.53-.34,9.8,9.8,0,0,1,1.1-.6,4.85,4.85,0,0,1,.62-.27,5.31,5.31,0,0,1,.55-.23l.6-.2.62-.18a5.59,5.59,0,0,1,.71-.15,5,5,0,0,1,.56-.1c.2,0,.4-.06.6-.08l.37,0h0c.31,0,.62,0,.94,0h1.2c.29,0,.58.06.88.11l.55.08a13,13,0,0,1,8.92,6.68l.34.7a6.69,6.69,0,0,1,.27.67c.06.14.12.3.17.44s.15.45.22.68v0c.1.4.2.8.27,1.19,0,.21.07.42.1.62s0,.42.07.64,0,.73,0,1.1Z"/>
        <circle class="cls-2" cx="198.92" cy="49.48" r="1.6"/>
        <path class="cls-2" d="M202.61,43.37v0c0,.26,0,.53,0,.79h0c0,.21,0,.43-.07.64s0,.16,0,.24a2.51,2.51,0,0,1-2.24,2h0a2.85,2.85,0,0,1-1.43-.24.09.09,0,0,1-.06,0,2.78,2.78,0,0,1-1.5-2h0a5.11,5.11,0,0,0,.19-1.62v-.05c0-.07,0-.13,0-.19a.69.69,0,0,0,0-.2.25.25,0,0,0,0-.12,1.61,1.61,0,0,0-.06-.33l0-.14c0-.13-.07-.26-.11-.39s-.11-.29-.17-.44a3.73,3.73,0,0,0-.2-.4.08.08,0,0,0,0,0,3.62,3.62,0,0,0-.2-.33c-.08-.11-.15-.22-.23-.32a2.52,2.52,0,0,0-.21-.25l-.1-.12-.3-.29a3.65,3.65,0,0,0-.36-.31,4.88,4.88,0,0,0-.71-.44.7.7,0,0,0-.17-.09l-.36-.16a3.39,3.39,0,0,0-.45-.15,4.21,4.21,0,0,0-1-.19h-.13a4.51,4.51,0,0,0-.9,0h0a5.46,5.46,0,0,0-.91.2,2.54,2.54,0,0,0-.46.17,0,0,0,0,0,0,0,4.68,4.68,0,0,0-.88.48,3,3,0,0,0-.4.3,2.73,2.73,0,0,0-.31.27c-.11.11-.22.22-.31.33A5,5,0,0,0,187,43.29a.81.81,0,0,0,0,.16c0,.13,0,.25,0,.38a.83.83,0,0,0,0,.22c0,.05,0,.11,0,.15l0,.16a.2.2,0,0,0,0,.11,2.34,2.34,0,0,0,.09.38.56.56,0,0,0,0,.12,2.14,2.14,0,0,0,.16.42,1.69,1.69,0,0,0,.17.36,2.75,2.75,0,0,0,.31.52,2.7,2.7,0,0,0,.29.4c.1.12.2.23.31.34a1,1,0,0,0,.15.14,3.47,3.47,0,0,0,.64.52,0,0,0,0,0,0,0l.34.21.14.08.36.17h0a3.47,3.47,0,0,0,.41.16l.07,0,.33.08a1.83,1.83,0,0,0,.25.06,3.25,3.25,0,0,0,.45.06c.23,0,.45,0,.68,0h.26a.86.86,0,0,0,.17,0,1.93,1.93,0,0,0,.42-.06,2.6,2.6,0,0,0,.4-.1l.42-.13a2.72,2.72,0,0,1,2,1.16.28.28,0,0,1,.08.12,2.89,2.89,0,0,1,.4,1.49v0a2.5,2.5,0,0,1-1.63,2.36h0a4.58,4.58,0,0,1-.56.14,11.55,11.55,0,0,1-1.2.17h0c-.3,0-.6,0-.89,0a11.05,11.05,0,0,1-2.09-.2l-.51-.12-.38-.12c-.17,0-.35-.1-.53-.16l-.08,0-.6-.24a10.43,10.43,0,0,1-5.93-7.19,2.21,2.21,0,0,1-.05-.25,9.41,9.41,0,0,1-.16-1l0-.43c0-.21,0-.43,0-.64a8.21,8.21,0,0,1,.05-1c0-.33.08-.66.13-1,0-.15.07-.3.11-.45l.12-.48a4,4,0,0,1,.15-.45l.09-.28.15-.37A10.29,10.29,0,0,1,184.89,36a11.75,11.75,0,0,1,1.06-.93l.47-.34.43-.27c.28-.17.57-.33.88-.48a4.25,4.25,0,0,1,.49-.21c.14-.07.29-.12.44-.18l.48-.17.49-.13a3.9,3.9,0,0,1,.57-.13l.45-.08.48-.06.29,0h0c.25,0,.49,0,.75,0h.75l.21,0,.7.08.44.07a10.4,10.4,0,0,1,7.12,5.34,5.6,5.6,0,0,1,.27.55,4.93,4.93,0,0,1,.22.53c0,.12.1.24.14.36s.12.36.17.54a0,0,0,0,0,0,0c.08.31.16.63.21.95a4,4,0,0,1,.08.5c0,.16,0,.33.06.5S202.61,43.07,202.61,43.37Z"/>
        <path class="cls-3" d="M83.22,53.5a1.91,1.91,0,0,1-1.93-1.93v-25a1.83,1.83,0,0,1,.56-1.38,1.88,1.88,0,0,1,1.37-.54h6.69a15.38,15.38,0,0,1,5.79,1,13.3,13.3,0,0,1,7.5,7.57,15.72,15.72,0,0,1,1,5.81,15.91,15.91,0,0,1-1,5.83,13.28,13.28,0,0,1-7.5,7.58,15.19,15.19,0,0,1-5.79,1.06Zm1.92-3.41h4.77a10.53,10.53,0,0,0,5.5-1.42,10.17,10.17,0,0,0,3.75-3.92A11.63,11.63,0,0,0,100.53,39a11.63,11.63,0,0,0-1.37-5.74,10.06,10.06,0,0,0-3.75-3.88A10.62,10.62,0,0,0,89.91,28H85.14Z"/>
        <path class="cls-3" d="M126.24,33.87a1.51,1.51,0,0,1-.31,1,2,2,0,0,1-.8.62,3.24,3.24,0,0,1-1.13.26,15.34,15.34,0,0,0-5.37,1.33h0a3.58,3.58,0,0,0-2.07,3.26V51.65a1.88,1.88,0,0,1-.47,1.37,1.82,1.82,0,0,1-1.38.48,1.88,1.88,0,0,1-1.37-.46,1.85,1.85,0,0,1-.48-1.39V39.45a3.61,3.61,0,0,1,.54-2,10.3,10.3,0,0,1,2.12-2.44c.3-.26.61-.49.93-.72a12.41,12.41,0,0,1,3.89-1.75,8.93,8.93,0,0,1,4.36-.32C125.75,32.56,126.27,33.09,126.24,33.87Z"/>
        <path class="cls-3" d="M140.75,53.65a8.93,8.93,0,0,1-4.85-1.36,9.54,9.54,0,0,1-3.38-3.66,10.86,10.86,0,0,1-1.24-5.23,10.32,10.32,0,0,1,1.35-5.26,10,10,0,0,1,3.66-3.68,10.21,10.21,0,0,1,14,3.68,10.32,10.32,0,0,1,1.35,5.26h-1.45A10.86,10.86,0,0,1,149,48.63a9.54,9.54,0,0,1-3.38,3.66A8.93,8.93,0,0,1,140.75,53.65Zm.74-3.34a6.36,6.36,0,0,0,3.37-.9,6.54,6.54,0,0,0,2.33-2.48A7.28,7.28,0,0,0,148,43.4a7.37,7.37,0,0,0-.85-3.58,6.52,6.52,0,0,0-2.33-2.47,6.66,6.66,0,0,0-6.72,0,6.54,6.54,0,0,0-2.37,2.47,7.38,7.38,0,0,0-.86,3.58,7.29,7.29,0,0,0,.86,3.53,6.57,6.57,0,0,0,2.37,2.48A6.39,6.39,0,0,0,141.49,50.31Zm8.29,3.22a1.83,1.83,0,0,1-1.89-1.88V46l.71-3.93,3.07,1.34v8.25a1.83,1.83,0,0,1-1.89,1.88Z"/>
        <path class="cls-3" d="M174.46,53.5a2.4,2.4,0,0,1-.71-.11,1.39,1.39,0,0,1-.62-.49l-6.48-7.77-1.33-1.33-6.44-7.62a2.21,2.21,0,0,1-.52-1.28,1.62,1.62,0,0,1,.37-1.16,1.51,1.51,0,0,1,1.22-.48,1.73,1.73,0,0,1,1.41.63l6.33,7.54,1,.89,6.95,8.33a2,2,0,0,1,.54,1.31,1.49,1.49,0,0,1-.48,1.09A1.65,1.65,0,0,1,174.46,53.5Zm-14.14,0a1.49,1.49,0,0,1-1.16-.47,1.55,1.55,0,0,1-.43-1.12,2.22,2.22,0,0,1,.52-1.34l6.29-7.88,2,2.81-5.88,7.4A1.76,1.76,0,0,1,160.32,53.5ZM169.46,44l-2.55-2.19,6-7.91a1.39,1.39,0,0,1,.63-.5,1.92,1.92,0,0,1,.74-.13,1.46,1.46,0,0,1,1.22.5,1.77,1.77,0,0,1,.39,1.2,2.42,2.42,0,0,1-.54,1.37Z"/>
    </g>
</svg>